<mxfile host="app.diagrams.net" modified="2023-04-11T02:25:25.879Z" agent="Mozilla/5.0 (Windows NT 10.0; Win64; x64) AppleWebKit/537.36 (KHTML, like Gecko) Chrome/111.0.0.0 Safari/537.36" etag="F2TPjtYWs5GpEi-q0Nrc" version="21.1.5" type="device">
  <diagram name="PÃ¡gina-1" id="AG-N9R-do4ABOKKchNhq">
    <mxGraphModel dx="1434" dy="657" grid="1" gridSize="10" guides="1" tooltips="1" connect="1" arrows="1" fold="1" page="1" pageScale="1" pageWidth="1169" pageHeight="827" math="0" shadow="0">
      <root>
        <mxCell id="0" />
        <mxCell id="1" parent="0" />
        <mxCell id="S687kOF9_SxQayDHli7b-8" style="edgeStyle=orthogonalEdgeStyle;rounded=0;orthogonalLoop=1;jettySize=auto;html=1;entryX=0.5;entryY=0;entryDx=0;entryDy=0;" parent="1" source="S687kOF9_SxQayDHli7b-1" target="S687kOF9_SxQayDHli7b-3" edge="1">
          <mxGeometry relative="1" as="geometry" />
        </mxCell>
        <mxCell id="S687kOF9_SxQayDHli7b-1" value="" style="ellipse;whiteSpace=wrap;html=1;aspect=fixed;fillColor=#030303;" parent="1" vertex="1">
          <mxGeometry x="520" y="70" width="80" height="80" as="geometry" />
        </mxCell>
        <mxCell id="S687kOF9_SxQayDHli7b-9" style="edgeStyle=orthogonalEdgeStyle;rounded=0;orthogonalLoop=1;jettySize=auto;html=1;entryX=0.5;entryY=0;entryDx=0;entryDy=0;" parent="1" source="S687kOF9_SxQayDHli7b-3" target="S687kOF9_SxQayDHli7b-5" edge="1">
          <mxGeometry relative="1" as="geometry" />
        </mxCell>
        <mxCell id="S687kOF9_SxQayDHli7b-3" value="num1, num2, sum" style="rounded=0;whiteSpace=wrap;html=1;" parent="1" vertex="1">
          <mxGeometry x="500" y="190" width="120" height="60" as="geometry" />
        </mxCell>
        <mxCell id="S687kOF9_SxQayDHli7b-10" style="edgeStyle=orthogonalEdgeStyle;rounded=0;orthogonalLoop=1;jettySize=auto;html=1;entryX=0.5;entryY=0;entryDx=0;entryDy=0;" parent="1" source="S687kOF9_SxQayDHli7b-5" target="S687kOF9_SxQayDHli7b-6" edge="1">
          <mxGeometry relative="1" as="geometry" />
        </mxCell>
        <mxCell id="S687kOF9_SxQayDHli7b-5" value="Ingreso num1, num2" style="rounded=1;whiteSpace=wrap;html=1;" parent="1" vertex="1">
          <mxGeometry x="500" y="280" width="120" height="60" as="geometry" />
        </mxCell>
        <mxCell id="MnYvDKdg5I9eAi4Qpzdz-2" style="edgeStyle=orthogonalEdgeStyle;rounded=0;orthogonalLoop=1;jettySize=auto;html=1;entryX=0.5;entryY=0;entryDx=0;entryDy=0;" edge="1" parent="1" source="S687kOF9_SxQayDHli7b-6" target="MnYvDKdg5I9eAi4Qpzdz-1">
          <mxGeometry relative="1" as="geometry" />
        </mxCell>
        <mxCell id="S687kOF9_SxQayDHli7b-6" value="sum = num1 + num2" style="rounded=0;whiteSpace=wrap;html=1;" parent="1" vertex="1">
          <mxGeometry x="500" y="384" width="120" height="60" as="geometry" />
        </mxCell>
        <mxCell id="S687kOF9_SxQayDHli7b-7" value="" style="ellipse;whiteSpace=wrap;html=1;aspect=fixed;fillColor=#030303;" parent="1" vertex="1">
          <mxGeometry x="520" y="570" width="80" height="80" as="geometry" />
        </mxCell>
        <mxCell id="MnYvDKdg5I9eAi4Qpzdz-3" style="edgeStyle=orthogonalEdgeStyle;rounded=0;orthogonalLoop=1;jettySize=auto;html=1;" edge="1" parent="1" source="MnYvDKdg5I9eAi4Qpzdz-1" target="S687kOF9_SxQayDHli7b-7">
          <mxGeometry relative="1" as="geometry" />
        </mxCell>
        <mxCell id="MnYvDKdg5I9eAi4Qpzdz-1" value="&quot;Imprimir resultado &quot;, sum" style="shape=document;whiteSpace=wrap;html=1;boundedLbl=1;" vertex="1" parent="1">
          <mxGeometry x="500" y="470" width="120" height="80" as="geometry" />
        </mxCell>
      </root>
    </mxGraphModel>
  </diagram>
</mxfile>
